<svg xmlns="http://www.w3.org/2000/svg" xmlns:xlink="http://www.w3.org/1999/xlink" width="360.176" height="359.285" viewBox="0 0 360.176 359.285">
  <defs>
    <linearGradient id="linear-gradient" x1="1.059" y1="1.132" x2="0.324" y2="0.336" gradientUnits="objectBoundingBox">
      <stop offset="0" stop-color="#dae3fe"/>
      <stop offset="1" stop-color="#e9effd"/>
    </linearGradient>
    <linearGradient id="linear-gradient-2" x1="0.682" y1="-12.689" x2="0.402" y2="7.62" gradientUnits="objectBoundingBox">
      <stop offset="0" stop-color="#ff928e"/>
      <stop offset="1" stop-color="#fe7062"/>
    </linearGradient>
    <linearGradient id="linear-gradient-3" x1="0.698" y1="-13.8" x2="0.417" y2="6.509" xlink:href="#linear-gradient-2"/>
    <linearGradient id="linear-gradient-4" x1="0.713" y1="-14.91" x2="0.432" y2="5.399" xlink:href="#linear-gradient-2"/>
    <linearGradient id="linear-gradient-5" x1="0.728" y1="-16.021" x2="0.448" y2="4.288" xlink:href="#linear-gradient-2"/>
    <linearGradient id="linear-gradient-6" x1="0.744" y1="-17.132" x2="0.463" y2="3.178" xlink:href="#linear-gradient-2"/>
    <linearGradient id="linear-gradient-7" x1="0.759" y1="-18.231" x2="0.478" y2="2.079" xlink:href="#linear-gradient-2"/>
    <linearGradient id="linear-gradient-8" x1="-0.184" y1="1.294" x2="0.486" y2="0.516" xlink:href="#linear-gradient-2"/>
    <linearGradient id="linear-gradient-9" x1="0.451" y1="-0.623" x2="0.552" y2="1.697" xlink:href="#linear-gradient-2"/>
    <linearGradient id="linear-gradient-10" x1="0.711" y1="-8.823" x2="0.329" y2="8.055" xlink:href="#linear-gradient-2"/>
    <linearGradient id="linear-gradient-11" x1="0.736" y1="-9.926" x2="0.354" y2="6.952" xlink:href="#linear-gradient-2"/>
    <linearGradient id="linear-gradient-12" x1="0.761" y1="-11.03" x2="0.379" y2="5.849" xlink:href="#linear-gradient-2"/>
    <linearGradient id="linear-gradient-13" x1="0.786" y1="-12.133" x2="0.404" y2="4.745" xlink:href="#linear-gradient-2"/>
    <linearGradient id="linear-gradient-14" x1="0.81" y1="-13.225" x2="0.429" y2="3.653" xlink:href="#linear-gradient-2"/>
    <linearGradient id="linear-gradient-16" x1="0.588" y1="-1.027" x2="0.467" y2="1.072" xlink:href="#linear-gradient-2"/>
    <linearGradient id="linear-gradient-17" x1="-20.963" y1="-1.461" x2="-24.195" y2="3.372" gradientUnits="objectBoundingBox">
      <stop offset="0" stop-color="#febbba"/>
      <stop offset="1" stop-color="#ff928e"/>
    </linearGradient>
    <linearGradient id="linear-gradient-18" x1="-19.682" y1="-1.014" x2="-22.891" y2="5.177" xlink:href="#linear-gradient-17"/>
    <linearGradient id="linear-gradient-19" x1="-30.428" y1="0.5" x2="-29.428" y2="0.5" gradientUnits="objectBoundingBox">
      <stop offset="0" stop-color="#4f52ff"/>
      <stop offset="1" stop-color="#4042e2"/>
    </linearGradient>
    <linearGradient id="linear-gradient-20" x1="-31.34" y1="0.5" x2="-30.34" y2="0.5" gradientUnits="objectBoundingBox">
      <stop offset="0" stop-color="#09005d"/>
      <stop offset="1" stop-color="#1a0f91"/>
    </linearGradient>
    <linearGradient id="linear-gradient-21" x1="-109.92" y1="0.5" x2="-108.92" y2="0.5" xlink:href="#linear-gradient-17"/>
    <linearGradient id="linear-gradient-22" x1="-90.328" y1="0.5" x2="-89.328" y2="0.5" xlink:href="#linear-gradient-19"/>
    <linearGradient id="linear-gradient-23" x1="-61.211" y1="0.5" x2="-60.211" y2="0.5" xlink:href="#linear-gradient-20"/>
    <linearGradient id="linear-gradient-24" x1="-101.211" y1="0.5" x2="-100.211" y2="0.5" xlink:href="#linear-gradient-17"/>
    <linearGradient id="linear-gradient-25" x1="-11.737" y1="0.066" x2="-12.893" y2="1.243" xlink:href="#linear-gradient-20"/>
    <linearGradient id="linear-gradient-26" x1="3.101" y1="-6.423" x2="0.428" y2="0.693" gradientUnits="objectBoundingBox">
      <stop offset="0" stop-color="#53d8ff"/>
      <stop offset="1" stop-color="#3840f7"/>
    </linearGradient>
    <linearGradient id="linear-gradient-27" x1="-57.379" y1="1.478" x2="-57.106" y2="0.434" xlink:href="#linear-gradient-17"/>
    <linearGradient id="linear-gradient-28" x1="-40.308" y1="0.35" x2="-41.42" y2="1.106" xlink:href="#linear-gradient-17"/>
    <linearGradient id="linear-gradient-29" x1="-29.728" y1="0.152" x2="-28.978" y2="1.129" xlink:href="#linear-gradient-20"/>
    <linearGradient id="linear-gradient-30" x1="-168.552" y1="-0.685" x2="-173.103" y2="1.784" xlink:href="#linear-gradient-17"/>
    <linearGradient id="linear-gradient-31" x1="0.568" y1="-1.231" x2="0.524" y2="-0.273" xlink:href="#linear-gradient-19"/>
    <linearGradient id="linear-gradient-32" x1="0.785" y1="-10.44" x2="0.688" y2="-6.555" xlink:href="#linear-gradient-19"/>
    <linearGradient id="linear-gradient-33" x1="0.335" y1="-5.038" x2="0.39" y2="-3.236" xlink:href="#linear-gradient-19"/>
    <linearGradient id="linear-gradient-34" x1="0.768" y1="-9.78" x2="0.671" y2="-5.895" xlink:href="#linear-gradient-19"/>
    <linearGradient id="linear-gradient-35" x1="0.335" y1="-4.599" x2="0.389" y2="-2.943" xlink:href="#linear-gradient-19"/>
    <linearGradient id="linear-gradient-36" x1="0.528" y1="0.434" x2="0.86" y2="-2.146" xlink:href="#linear-gradient-19"/>
    <linearGradient id="linear-gradient-37" x1="0.765" y1="-0.744" x2="1.74" y2="-5.079" xlink:href="#linear-gradient-19"/>
    <linearGradient id="linear-gradient-38" x1="0.68" y1="-1.394" x2="0.419" y2="1.019" xlink:href="#linear-gradient-20"/>
    <linearGradient id="linear-gradient-39" x1="-35.867" y1="1.924" x2="-36.784" y2="-0.193" xlink:href="#linear-gradient-17"/>
    <linearGradient id="linear-gradient-40" x1="-61.291" y1="2.292" x2="-62.104" y2="-2.616" xlink:href="#linear-gradient-17"/>
  </defs>
  <g id="Demat_account-img" transform="translate(-451.528 -455)">
    <path id="Path_20898" data-name="Path 20898" d="M800.568,697.367c-36.362,84.368-132.345,120.605-207.55,114.427-20.534-1.687-61.849-5.081-94.108-35.364-61.951-58.155-52.41-179.715,6.895-251.283,7.637-9.216,60.5-70.966,142.879-70.139,60.313.605,102.646,34.425,107.793,38.638a165.238,165.238,0,0,1,33.771,38.036C820.621,578.829,823.291,644.646,800.568,697.367Z" transform="translate(-4.491 0)" fill="url(#linear-gradient)"/>
    <g id="Group_8947" data-name="Group 8947" transform="translate(494.558 479.992)">
      <path id="Path_20899" data-name="Path 20899" d="M948.614,769.631H806.94a11.132,11.132,0,0,1-11.083-10.087l-8.929-94.731A11.132,11.132,0,0,1,797.8,652.638l150.6-2.867a11.132,11.132,0,0,1,11.344,11.13v97.6A11.132,11.132,0,0,1,948.614,769.631Z" transform="translate(-786.878 -649.769)" fill="#0f2a81"/>
      <path id="Path_20900" data-name="Path 20900" d="M857.7,749.486l6.333,81.914a6.885,6.885,0,0,0,6.792,6.354l135.976,1.424a6.885,6.885,0,0,0,6.957-6.884V744.105a6.885,6.885,0,0,0-7.119-6.881l-142.308,4.85A6.885,6.885,0,0,0,857.7,749.486Z" transform="translate(-848.591 -725.999)" fill="#fff"/>
      <path id="Path_20902" data-name="Path 20902" d="M1262.477,1276.562a.626.626,0,0,1-.626-.624l-.005-1.877a.626.626,0,0,1,.624-.627h0a.626.626,0,0,1,.626.624l0,1.877a.625.625,0,0,1-.624.627Zm-.016-6.256a.626.626,0,0,1-.626-.624l0-1.877a.626.626,0,0,1,.624-.627h0a.626.626,0,0,1,.626.624l0,1.877a.625.625,0,0,1-.624.627Zm-.016-6.256a.626.626,0,0,1-.626-.624l0-1.877a.626.626,0,0,1,.624-.627h0a.626.626,0,0,1,.626.624l0,1.877a.625.625,0,0,1-.624.627Zm-.016-6.256a.626.626,0,0,1-.626-.624l0-1.877a.626.626,0,0,1,.624-.627h0a.626.626,0,0,1,.625.624l0,1.877a.625.625,0,0,1-.624.627Z" transform="translate(-1200.859 -1177.048)" fill="#89cdde"/>
      <path id="Path_20903" data-name="Path 20903" d="M1507.7,1220.17a.625.625,0,0,1-.626-.626v-1.877a.626.626,0,0,1,1.251,0v1.877A.625.625,0,0,1,1507.7,1220.17Zm0-6.256a.625.625,0,0,1-.626-.625v-1.877a.626.626,0,1,1,1.251,0v1.877A.625.625,0,0,1,1507.7,1213.914Zm0-6.256a.625.625,0,0,1-.626-.626v-1.877a.626.626,0,1,1,1.251,0v1.877A.625.625,0,0,1,1507.7,1207.658Zm0-6.256a.625.625,0,0,1-.626-.625V1198.9a.626.626,0,0,1,1.251,0v1.877A.625.625,0,0,1,1507.7,1201.4Zm0-6.256a.625.625,0,0,1-.626-.626v-1.877a.626.626,0,1,1,1.251,0v1.877A.625.625,0,0,1,1507.7,1195.146Z" transform="translate(-1414.666 -1122.439)" fill="#89cdde"/>
      <path id="Path_20904" data-name="Path 20904" d="M1686.327,1180.722a.625.625,0,0,1-.625-.606l-.035-1.12a.626.626,0,0,1,.606-.645.613.613,0,0,1,.645.606l.035,1.121a.626.626,0,0,1-.606.645Zm-.171-5.5a.626.626,0,0,1-.625-.606l-.058-1.876a.626.626,0,1,1,1.25-.039l.058,1.876a.626.626,0,0,1-.606.645Zm-.194-6.253a.625.625,0,0,1-.625-.606l-.058-1.876a.626.626,0,0,1,.606-.645.643.643,0,0,1,.645.606l.058,1.876a.626.626,0,0,1-.606.645Zm-.194-6.253a.626.626,0,0,1-.625-.606l-.058-1.876a.626.626,0,1,1,1.25-.039l.058,1.876a.626.626,0,0,1-.606.645Zm-.194-6.253a.625.625,0,0,1-.625-.606l-.058-1.876a.626.626,0,1,1,1.25-.039l.058,1.876a.626.626,0,0,1-.606.645Zm-.194-6.253a.626.626,0,0,1-.625-.606l-.058-1.876a.626.626,0,0,1,.606-.645.618.618,0,0,1,.645.606l.058,1.876a.626.626,0,0,1-.606.645Zm-.194-6.253a.626.626,0,0,1-.625-.606l-.058-1.876a.626.626,0,0,1,.606-.645.618.618,0,0,1,.645.606l.058,1.876a.626.626,0,0,1-.606.645Z" transform="translate(-1569.323 -1077.821)" fill="#89cdde"/>
      <path id="Path_20905" data-name="Path 20905" d="M1872,1063.174a.626.626,0,0,1-.626-.626v-1.877a.626.626,0,0,1,1.251,0v1.877A.626.626,0,0,1,1872,1063.174Zm0-6.256a.625.625,0,0,1-.626-.625v-1.877a.626.626,0,0,1,1.251,0v1.877A.625.625,0,0,1,1872,1056.918Zm0-6.256a.626.626,0,0,1-.626-.626v-1.877a.626.626,0,0,1,1.251,0v1.877A.626.626,0,0,1,1872,1050.662Zm0-6.256a.625.625,0,0,1-.626-.625V1041.9a.626.626,0,0,1,1.251,0v1.877A.625.625,0,0,1,1872,1044.406Zm0-6.256a.625.625,0,0,1-.626-.625v-1.877a.626.626,0,0,1,1.251,0v1.877A.625.625,0,0,1,1872,1038.15Zm0-6.256a.625.625,0,0,1-.626-.626v-1.877a.626.626,0,0,1,1.251,0v1.877A.625.625,0,0,1,1872,1031.894Zm0-6.256a.625.625,0,0,1-.626-.625v-1.877a.626.626,0,0,1,1.251,0v1.877A.625.625,0,0,1,1872,1025.638Zm0-6.256a.626.626,0,0,1-.626-.626v-1.877a.626.626,0,0,1,1.251,0v1.877A.626.626,0,0,1,1872,1019.382Zm0-6.256a.625.625,0,0,1-.626-.626v-1.877a.626.626,0,0,1,1.251,0v1.877A.625.625,0,0,1,1872,1013.126Z" transform="translate(-1732.214 -963.775)" fill="#89cdde"/>
      <g id="Group_8942" data-name="Group 8942" transform="translate(18.489 27.97)">
        <path id="Path_20906" data-name="Path 20906" d="M955.03,954.715a.938.938,0,0,1-.934-.859l-6.413-75.739a.938.938,0,1,1,1.87-.159l6.413,75.739a.939.939,0,0,1-.856,1.015C955.083,954.714,955.057,954.715,955.03,954.715Z" transform="translate(-945.535 -875.901)" fill="#0f2a81"/>
        <g id="Group_8941" data-name="Group 8941">
          <path id="Path_20907" data-name="Path 20907" d="M931.194,873.876l2.9-3.441,3.439,2.9-.228-2.692-3.439-2.9-2.9,3.439Z" transform="translate(-930.966 -867.745)" fill="#0f2a81"/>
        </g>
      </g>
      <g id="Group_8944" data-name="Group 8944" transform="translate(22.18 99.093)">
        <path id="Path_20908" data-name="Path 20908" d="M1092.639,1441.392H960.673a.938.938,0,0,1,0-1.877h131.965a.938.938,0,1,1,0,1.877Z" transform="translate(-959.735 -1437.271)" fill="#0f2a81"/>
        <g id="Group_8943" data-name="Group 8943" transform="translate(129.165)">
          <path id="Path_20909" data-name="Path 20909" d="M1966.353,1428.393l3.184-3.182-3.184-3.182h2.7l3.182,3.182-3.182,3.182Z" transform="translate(-1966.353 -1422.029)" fill="#0f2a81"/>
        </g>
      </g>
      <g id="Group_8945" data-name="Group 8945" transform="translate(32.537 41.956)">
        <path id="Path_20910" data-name="Path 20910" d="M1041.383,1016.239a.938.938,0,0,1-.122-1.869c.693-.092,69.787-9.554,107.611-37.443a.938.938,0,1,1,1.114,1.51c-38.214,28.178-107.779,37.7-108.477,37.794A.939.939,0,0,1,1041.383,1016.239Z" transform="translate(-1040.446 -976.743)" fill="#89cdde"/>
      </g>
      <g id="Group_8946" data-name="Group 8946" transform="translate(135.083 41.004)">
        <path id="Path_20911" data-name="Path 20911" d="M1846.341,976.2c-.025,0-.05,0-.075,0a.938.938,0,0,1-.862-1.009l.29-3.686-5.2-.309a.938.938,0,0,1-.881-.992.929.929,0,0,1,.992-.881l6.152.365a.938.938,0,0,1,.88,1.01l-.365,4.64A.939.939,0,0,1,1846.341,976.2Z" transform="translate(-1839.614 -969.32)" fill="#89cdde"/>
      </g>
    </g>
    <g id="Group_8948" data-name="Group 8948" transform="translate(466.335 564.883)">
      <path id="Path_20912" data-name="Path 20912" d="M567,1313.547a1.715,1.715,0,0,1,2.695-1.84c13.347,10.318,46.069,41.914,44.524,102.777-1.938,76.362,16.433,102.391,37.62,117.309,0,0-27.637-5.316-47.234-31.636C556.491,1435.535,575.62,1341.8,567,1313.547Z" transform="translate(-566.925 -1311.343)" fill="#7d97f4"/>
      <path id="Path_20913" data-name="Path 20913" d="M657.691,1501.415c2.339,8.255,4.515,16.552,6.384,24.917q2.869,12.53,4.965,25.208c1.361,8.452,2.564,16.928,3.4,25.442.879,8.51,1.392,17.049,1.876,25.624.532,8.567,1.02,17.2,2.393,25.81a87.045,87.045,0,0,0,7.676,25.036c.975,1.962,1.99,3.914,3.11,5.787,1.086,1.894,2.255,3.741,3.457,5.566a90.256,90.256,0,0,0,28.073,27.166,1.659,1.659,0,0,0,1.8-2.786l-.005,0c-1.763-1.173-3.511-2.364-5.2-3.63-.854-.619-1.68-1.275-2.517-1.915-.812-.671-1.65-1.311-2.441-2.006a87.442,87.442,0,0,1-9-8.834,95.859,95.859,0,0,1-14-20.944,83.521,83.521,0,0,1-4.619-11.7,94.674,94.674,0,0,1-2.869-12.3c-1.4-8.351-1.95-16.892-2.544-25.455s-1.272-17.165-2.291-25.726q-.747-6.422-1.725-12.812c-.313-2.131-.668-4.256-1.019-6.382q-.557-3.183-1.154-6.358-2.424-12.692-5.625-25.207c-2.176-8.327-4.572-16.593-7.283-24.754a.445.445,0,0,0-.85.262Z" transform="translate(-646.029 -1476.532)" fill="#fff" style="mix-blend-mode: soft-light;isolation: isolate"/>
    </g>
    <g id="Group_8950" data-name="Group 8950" transform="translate(451.528 628.802)">
      <g id="Group_8949" data-name="Group 8949" transform="translate(0)">
        <path id="Path_20914" data-name="Path 20914" d="M493.071,1982a3.8,3.8,0,0,1-6.163,1.355c-10.79-10.264-38.673-42.043-34.667-93.3,3.383-43.282,1.1-67.072-.679-77.8a2.383,2.383,0,0,1,4.012-2.1C473.786,1827.83,528.506,1890.851,493.071,1982Z" transform="translate(-451.528 -1809.482)" fill="#91b3fa"/>
        <path id="Path_20915" data-name="Path 20915" d="M587.21,2310.266a1.055,1.055,0,0,1-1.545-.51c-.238-.615-23.815-62.206-21.83-122.6a1.054,1.054,0,1,1,2.107.069c-1.971,59.953,21.452,121.157,21.689,121.768A1.054,1.054,0,0,1,587.21,2310.266Z" transform="translate(-549.32 -2137.807)" fill="#fff" style="mix-blend-mode: soft-light;isolation: isolate"/>
      </g>
    </g>
    <g id="Group_8953" data-name="Group 8953" transform="translate(455.305 591.482)">
      <rect id="Rectangle_1003" data-name="Rectangle 1003" width="86.905" height="16.553" rx="3.634" transform="translate(21.035 113.494)" fill="url(#linear-gradient-2)"/>
      <rect id="Rectangle_1004" data-name="Rectangle 1004" width="86.905" height="16.553" rx="3.634" transform="translate(21.104 131.853)" fill="url(#linear-gradient-3)"/>
      <rect id="Rectangle_1005" data-name="Rectangle 1005" width="86.905" height="16.553" rx="3.634" transform="translate(21.172 150.213)" fill="url(#linear-gradient-4)"/>
      <rect id="Rectangle_1006" data-name="Rectangle 1006" width="86.905" height="16.553" rx="3.634" transform="translate(21.24 168.572)" fill="url(#linear-gradient-5)"/>
      <rect id="Rectangle_1007" data-name="Rectangle 1007" width="86.905" height="16.553" rx="3.634" transform="translate(21.308 186.932)" fill="url(#linear-gradient-6)"/>
      <rect id="Rectangle_1008" data-name="Rectangle 1008" width="86.905" height="16.553" rx="3.634" transform="translate(21.308 205.098)" fill="url(#linear-gradient-7)"/>
      <g id="Group_8952" data-name="Group 8952" transform="translate(0)">
        <circle id="Ellipse_199" data-name="Ellipse 199" cx="44.352" cy="44.352" r="44.352" transform="translate(0 62.723) rotate(-45)" fill="url(#linear-gradient-8)"/>
        <circle id="Ellipse_200" data-name="Ellipse 200" cx="42.877" cy="42.877" r="42.877" transform="translate(2.086 62.723) rotate(-45)" fill="url(#linear-gradient-9)"/>
        <path id="Path_20916" data-name="Path 20916" d="M687.565,1715.067a.973.973,0,0,1-.442-.106.983.983,0,0,1-.435-1.321,40.394,40.394,0,0,1,36.234-22.309,40.919,40.919,0,0,1,7.317.658.984.984,0,0,1-.352,1.936,38.94,38.94,0,0,0-6.964-.626,38.436,38.436,0,0,0-34.477,21.229A.983.983,0,0,1,687.565,1715.067Z" transform="translate(-660.198 -1669.172)" fill="#fff" opacity="0.7"/>
        <circle id="Ellipse_201" data-name="Ellipse 201" cx="36.29" cy="36.29" r="36.29" transform="translate(12.335 63.657) rotate(-45)" fill="#fff" opacity="0.78"/>
      </g>
      <path id="Path_20814" data-name="Path 20814" d="M288.23,273.581a3.05,3.05,0,1,0,0-6.1H264.072a3.05,3.05,0,0,0,0,6.1H271a7.289,7.289,0,0,1,6.649,4.27H264.1a3.05,3.05,0,1,0,0,6.1h13.543A7.34,7.34,0,0,1,271,288.222h-6.924a3.06,3.06,0,0,0-2.1,5.277l17.264,16.318a3.052,3.052,0,0,0,2.1.823,3.145,3.145,0,0,0,2.226-.945,3.04,3.04,0,0,0-.122-4.3l-11.713-11.072a13.461,13.461,0,0,0,12.323-10.34h4.178a3.05,3.05,0,1,0,0-6.1h-4.178a13.315,13.315,0,0,0-1.83-4.271h6.009Z" transform="translate(-213.426 -226.338)" fill="#fe7062"/>
    </g>
    <g id="Group_8956" data-name="Group 8956" transform="translate(551.438 610.277)">
      <rect id="Rectangle_1009" data-name="Rectangle 1009" width="86.905" height="16.553" rx="3.634" transform="translate(22.5 113.058)" fill="url(#linear-gradient-10)"/>
      <rect id="Rectangle_1010" data-name="Rectangle 1010" width="86.905" height="16.553" rx="3.634" transform="translate(22.568 131.418)" fill="url(#linear-gradient-11)"/>
      <rect id="Rectangle_1011" data-name="Rectangle 1011" width="86.905" height="16.553" rx="3.634" transform="translate(22.637 149.777)" fill="url(#linear-gradient-12)"/>
      <rect id="Rectangle_1012" data-name="Rectangle 1012" width="86.905" height="16.553" rx="3.634" transform="translate(22.705 168.137)" fill="url(#linear-gradient-13)"/>
      <rect id="Rectangle_1013" data-name="Rectangle 1013" width="86.905" height="16.553" rx="3.634" transform="translate(22.705 186.303)" fill="url(#linear-gradient-14)"/>
      <g id="Group_8955" data-name="Group 8955" transform="translate(0 0)">
        <circle id="Ellipse_202" data-name="Ellipse 202" cx="44.352" cy="44.352" r="44.352" transform="translate(0 62.723) rotate(-45)" fill="url(#linear-gradient-8)"/>
        <circle id="Ellipse_203" data-name="Ellipse 203" cx="42.877" cy="42.877" r="42.877" transform="translate(2.086 62.723) rotate(-45)" fill="url(#linear-gradient-16)"/>
        <path id="Path_20918" data-name="Path 20918" d="M1436.752,1861.538a.983.983,0,0,1-.877-1.427,40.393,40.393,0,0,1,36.233-22.309,40.92,40.92,0,0,1,7.317.658.984.984,0,0,1-.353,1.936,38.939,38.939,0,0,0-6.964-.626A38.437,38.437,0,0,0,1437.631,1861,.982.982,0,0,1,1436.752,1861.538Z" transform="translate(-1409.385 -1815.643)" fill="#fff" opacity="0.7"/>
        <circle id="Ellipse_204" data-name="Ellipse 204" cx="36.29" cy="36.29" r="36.29" transform="translate(12.335 63.657) rotate(-45)" fill="#fff" opacity="0.78"/>
        <path id="Path_20954" data-name="Path 20954" d="M288.23,273.581a3.05,3.05,0,1,0,0-6.1H264.072a3.05,3.05,0,0,0,0,6.1H271a7.289,7.289,0,0,1,6.649,4.27H264.1a3.05,3.05,0,1,0,0,6.1h13.543A7.34,7.34,0,0,1,271,288.222h-6.924a3.06,3.06,0,0,0-2.1,5.277l17.264,16.318a3.052,3.052,0,0,0,2.1.823,3.145,3.145,0,0,0,2.226-.945,3.04,3.04,0,0,0-.122-4.3l-11.713-11.072a13.461,13.461,0,0,0,12.323-10.34h4.178a3.05,3.05,0,1,0,0-6.1h-4.178a13.315,13.315,0,0,0-1.83-4.271h6.009Z" transform="translate(-212.559 -222.552)" fill="#fe7062"/>
      </g>
    </g>
    <g id="Group_8966" data-name="Group 8966" transform="translate(553.022 459.093)">
      <g id="Group_8958" data-name="Group 8958" transform="translate(0 100.909)">
        <g id="Group_8957" data-name="Group 8957" transform="translate(21.959)">
          <path id="Path_20920" data-name="Path 20920" d="M1636.73,1299.307c21.979,3.3,36.305-10.57,46.98-18.983,14.094-11.107,25.061-5.7,25.061-5.7l-12.668,28.336c-22.446,21.163-47.821,16.813-62.33,9.955A27.972,27.972,0,0,1,1636.73,1299.307Z" transform="translate(-1605.505 -1273.307)" fill="#fca700"/>
          <path id="Path_20921" data-name="Path 20921" d="M1413.961,1373.745l7.289,3.922c8.742,5.322,16.564,8.135,23.6,9.191a27.975,27.975,0,0,0-2.957,13.6,67.282,67.282,0,0,1-15.026-9.605C1410.358,1381.011,1413.961,1373.745,1413.961,1373.745Z" transform="translate(-1413.629 -1360.857)" fill="url(#linear-gradient-17)"/>
        </g>
        <path id="Path_20922" data-name="Path 20922" d="M1243.318,1334.135a5.376,5.376,0,0,1,3.143-3.439l14.792-5.949s.223-1.9-3.125-3.186-2.566-5.04-2.566-5.04,4.575,2.087,11.273,5.4a15.68,15.68,0,0,1,7.119,7.751l-3.808,5.008a67.686,67.686,0,0,1-27.646,2.176Z" transform="translate(-1242.5 -1310.976)" fill="url(#linear-gradient-18)"/>
      </g>
      <g id="Group_8961" data-name="Group 8961" transform="translate(131.139 0)">
        <g id="Group_8959" data-name="Group 8959">
          <path id="Path_20923" data-name="Path 20923" d="M2286.134,646.873c2.9.147,4.268-.641,4.636-1.934,1.2-4.171-7.782-13.232-8.1-13.549.338.213,12.192,7.75,23.8-.343,7.8-5.437.79-10.089-5.014-12.62a52.179,52.179,0,0,0,11.736-2.954c15.018-5.216,3.086-11.843-2.374-14.288,2.83.342,8.049-1.3,15-13.133,11.012-18.727-6.955-10.793-6.955-10.793s8.115-6.687,6.393-29.37c-1.2-15.781-6.814-7.482-9.848-1.661,3.338-7.619,9.119-23.929,2.561-32.905-6.138-8.406-10.2,3.869-11.522,9.163.988-5.727,2.332-19.311-.522-28.722-.01-.023-.014-.045-.024-.068a18.5,18.5,0,0,0-2.67-5.6c-6.453-8.7-11.154,32.33-15.535,43.056s-21.752,26.136-15.125,41.23c7.009,15.952-8.082,56.408-8.082,56.408C2266.766,641.314,2274.054,646.261,2286.134,646.873Z" transform="translate(-2264.497 -486.894)" fill="#91b3fa"/>
          <path id="Path_20924" data-name="Path 20924" d="M2354.277,669.88c1.2-4.171-7.782-13.232-8.1-13.549.338.213,12.192,7.75,23.8-.343,7.8-5.437.79-10.089-5.014-12.62a52.179,52.179,0,0,0,11.736-2.954c15.018-5.216,3.086-11.843-2.374-14.288,2.83.342,8.049-1.3,15-13.133,11.012-18.727-6.955-10.793-6.955-10.793s8.115-6.687,6.393-29.37c-1.2-15.781-6.814-7.482-9.848-1.661,3.338-7.619,9.119-23.929,2.562-32.905-6.138-8.406-10.2,3.869-11.523,9.163.988-5.728,2.332-19.311-.522-28.722-.01-.023-.014-.045-.024-.068-3.169-9.54-5.4,5.456-5.9,8.771-1.565,10.359-1.35,22.357-5.72,32.575-2.177,5.1-5.357,9.773-7.763,14.746-2.4,4.945-4.734,10.375-4.646,15.985.1,6.649,3.805,12.412,4.45,19.137.924,9.637-3.144,21.5-6.179,30.459-1.923,5.691-3.963,11.405-6.306,16.871C2337.715,666.314,2346.215,670.185,2354.277,669.88Z" transform="translate(-2328.004 -511.835)" fill="#bdd0fb"/>
        </g>
        <g id="Group_8960" data-name="Group 8960" transform="translate(23.307 2.656)">
          <path id="Path_20925" data-name="Path 20925" d="M2465.266,666.742c3.16.932,4.926.579,5.774-.508,2.752-3.507-4.033-14.671-4.275-15.071.307.309,10.728,10.881,25.8,6.782,9.855-2.681,4.419-8.985-.7-13.133a63.13,63.13,0,0,0,13.135.93c16.584-.146,7.432-9.925,2.855-14.031,2.73,1.276,8.531,1.491,19.738-7.12,17.549-13.475-2.629-12.708-2.629-12.708s10.461-3.3,17.809-25.994c5.3-16.36-3.592-10.558-8.971-6.042,6.413-6.2,18.808-20.132,16.222-32.9-2.517-12.44-11.92-1.339-15.528,3.662,3.442-5.656,10.661-19.772,11.844-32,0-.032.005-.06,0-.092a27.727,27.727,0,0,0-.3-8.062c-2.939-14.444-26.013,29.951-35.363,39.465s-36.076,17.5-33.941,37.431-30.385,55.325-30.385,55.325C2444.78,655.792,2451.722,662.747,2465.266,666.742Z" transform="translate(-2446.135 -507.596)" fill="#7d97f4"/>
          <path id="Path_20926" data-name="Path 20926" d="M2536.6,706.445c2.752-3.507-4.033-14.671-4.275-15.071.307.309,10.728,10.881,25.8,6.782,9.855-2.681,4.419-8.985-.7-13.133a63.125,63.125,0,0,0,13.135.93c16.584-.146,7.433-9.925,2.855-14.031,2.73,1.276,8.531,1.491,19.738-7.12,17.549-13.475-2.629-12.708-2.629-12.708s10.461-3.3,17.809-25.994c5.3-16.36-3.592-10.558-8.971-6.042,6.413-6.2,18.808-20.132,16.222-32.9-2.517-12.439-11.92-1.339-15.528,3.662,3.442-5.656,10.66-19.772,11.843-32,0-.032.005-.06,0-.092.944-12.935-8.057,2.872-10.037,6.327-6.141,10.72-10.993,24.1-19.957,32.906-4.474,4.4-9.892,7.83-14.59,11.995-4.685,4.146-9.5,8.851-11.6,14.9-2.464,7.091-.483,14.74-2.321,21.922-2.591,10.123-11.543,20.426-18.247,28.205-4.245,4.934-8.628,9.844-13.276,14.412C2519.139,698.334,2527.556,704.48,2536.6,706.445Z" transform="translate(-2511.701 -547.806)" fill="#91b3fa"/>
        </g>
      </g>
      <path id="Path_20927" data-name="Path 20927" d="M2166.127,3152.471c5.828.5,15.943,1.322,23.917,1.673,4.793.211,7.553-.259,9.142-.895,0,.179-.008.348-.015.505a1.65,1.65,0,0,1-1.567,1.558,280.187,280.187,0,0,1-31.316.031,1.175,1.175,0,0,1-.957-1.764A9.66,9.66,0,0,1,2166.127,3152.471Z" transform="translate(-2046.774 -2810.434)" fill="url(#linear-gradient-19)"/>
      <path id="Path_20928" data-name="Path 20928" d="M2196.57,3074.2c-7.974-.351-18.089-1.169-23.917-1.673,5.73-7.03,23.917-11.768,23.917-11.768h5.137a21.544,21.544,0,0,1,4.006,12.547C2204.123,3073.942,2201.363,3074.411,2196.57,3074.2Z" transform="translate(-2053.3 -2730.49)" fill="url(#linear-gradient-20)"/>
      <path id="Path_20929" data-name="Path 20929" d="M2340.717,2995.408l-.48,9.512a2.172,2.172,0,0,1-1.855,2.043,8.452,8.452,0,0,1-3.859-.32,2.57,2.57,0,0,1-1.728-1.976l-1.661-9.26Z" transform="translate(-2191.445 -2673.525)" fill="url(#linear-gradient-21)"/>
      <g id="Group_8962" data-name="Group 8962" transform="translate(193.903 324.812)">
        <path id="Path_20930" data-name="Path 20930" d="M2810.694,3211.041a5.013,5.013,0,0,0,4.15-3.966c0,.016.006.033.01.049a4.521,4.521,0,0,1-2.213,4.84,11.526,11.526,0,0,1-6.129,1.24,5.668,5.668,0,0,1-4.6-2.739l-.014-.024C2803.806,3211.657,2806.479,3211.8,2810.694,3211.041Z" transform="translate(-2795.708 -3182.844)" fill="url(#linear-gradient-22)"/>
        <path id="Path_20931" data-name="Path 20931" d="M2756.7,3018.24h4.236c6.452-.17,10.5,17.418,11.83,24.229a5.014,5.014,0,0,1-4.15,3.966c-4.215.76-6.888.617-8.792-.6-3.486-5.928-5.214-14.611-6.045-19.679C2752.838,3020.393,2756.7,3018.24,2756.7,3018.24Z" transform="translate(-2753.635 -3018.239)" fill="url(#linear-gradient-23)"/>
      </g>
      <path id="Path_20932" data-name="Path 20932" d="M2745.022,2949.442l2.352,9.355a2.539,2.539,0,0,1-1.321,2.878,9.014,9.014,0,0,1-4.871,1.179,2.121,2.121,0,0,1-1.73-1.415L2736,2951.6Z" transform="translate(-2544.358 -2633.457)" fill="url(#linear-gradient-24)"/>
      <path id="Path_20933" data-name="Path 20933" d="M2161.471,1971.15s21.02,131.4,20.674,132.118a17.486,17.486,0,0,0,12.135.336s-1.9-70.24-6.355-97.172c0,0,35.875,62.781,47.267,94.063a28.476,28.476,0,0,0,10.861-3.946s-38.627-113-48.933-128.054Z" transform="translate(-2043.552 -1778.383)" fill="url(#linear-gradient-25)"/>
      <path id="Path_20934" data-name="Path 20934" d="M2262.714,2155.952a.844.844,0,0,1-.718-.4l-7.664-12.24-5.423-1.091a.845.845,0,1,1,.333-1.656l5.78,1.163a.846.846,0,0,1,.55.38l7.856,12.547a.845.845,0,0,1-.268,1.165A.836.836,0,0,1,2262.714,2155.952Z" transform="translate(-2119.179 -1928.363)" opacity="0.49" fill="url(#linear-gradient-26)"/>
      <path id="Path_20935" data-name="Path 20935" d="M2095.935,1272.1c8.2-.481,35.226-1.358,57.589,6.03,4.706,1.555,7.991,7.79,9.956,12.3,6.049,13.882-8.351,19.486-19.475,15.677-5.666,15.3-8.323,37.62-8.879,47.5a21.235,21.235,0,0,0,1.664,9.5l.139.328a1.125,1.125,0,0,1-.79,1.535c-15.306,3.438-31.226,2.5-35.982,2.111a1.962,1.962,0,0,1-1.749-1.5c-7.443-31.361-7.46-52.754-5.638-66.278C2085.808,1300.856,2094.433,1272.184,2095.935,1272.1Z" transform="translate(-1981.33 -1171.074)" fill="#fca700"/>
      <path id="Path_20936" data-name="Path 20936" d="M2105.01,1352.107a.942.942,0,0,1-.113-.007.844.844,0,0,1-.725-.948c1.794-13.564,5.4-19.375,5.558-19.615a.845.845,0,0,1,1.427.9c-.036.056-3.572,5.792-5.312,18.932A.844.844,0,0,1,2105.01,1352.107Z" transform="translate(-1993.598 -1222.815)" fill="#d48c00"/>
      <path id="Path_20937" data-name="Path 20937" d="M2301.608,1131.806s1.548,16.372,2.912,21.215a1.655,1.655,0,0,1-.78,1.891c-2.314,1.322-7.864,3.479-15.455-.242a3.444,3.444,0,0,1-1.912-3.241l.669-15.821Z" transform="translate(-2152.425 -1049.053)" fill="url(#linear-gradient-27)"/>
      <g id="Group_8963" data-name="Group 8963" transform="translate(127.867 49.389)">
        <path id="Path_20938" data-name="Path 20938" d="M2250.977,968.578s-4.953,11.377-5.285,17.348-1.619,9.846,5.285,11.048,12.721-2.237,15.872-8.185c0,0,4.937-9.166,3.83-12.919S2250.977,968.578,2250.977,968.578Z" transform="translate(-2244.56 -956.159)" fill="url(#linear-gradient-28)"/>
        <path id="Path_20939" data-name="Path 20939" d="M2258.925,900.148l-.393-.173a.948.948,0,0,1-.463-1.3c.974-1.881,2.872-6.192.42-7.2-3.16-1.3-15.677-3.849-18.378-8.29-2.6-4.269-.3-9.779,3.161-11.346a.476.476,0,0,1,.623.2l.288.545a.469.469,0,0,0,.865-.089.467.467,0,0,1,.845-.121c.83,1.329,3.072,3.483,9.065,4.589,8.518,1.572,14.149,5.019,14.29,10.9a.47.47,0,0,0,.726.387c.629-.383,1.635-.563,2.98.568,2.339,1.967,1.382,7.069-3.746,11.266a.466.466,0,0,0,.022.751c.93.605,2.315,2.045-1.275,3.965a12.091,12.091,0,0,1-7.556,1.646.467.467,0,0,1-.379-.564l1.14-5.173a.469.469,0,0,0-.458-.57Z" transform="translate(-2238.996 -871.794)" fill="url(#linear-gradient-29)"/>
        <path id="Path_20940" data-name="Path 20940" d="M2392.639,1063.294s1.889-7.267,5.148-5.23-1.69,8.143-4.31,8.415Z" transform="translate(-2372.924 -1033.849)" fill="url(#linear-gradient-30)"/>
      </g>
      <g id="Group_8964" data-name="Group 8964" transform="translate(149.498 212.219)">
        <path id="Path_20941" data-name="Path 20941" d="M2416.46,2379.344l.692,21.527a7,7,0,0,0,6.974,6.763l51.549.3a5.053,5.053,0,0,0,5.038-4.3c.806-5.436,1.833-15.163.677-24.293Z" transform="translate(-2415.32 -2348.731)" fill="url(#linear-gradient-31)"/>
        <path id="Path_20942" data-name="Path 20942" d="M2534.194,2239.358l.155-1.66a1.277,1.277,0,0,1,.968-.745c1.606-.256,5.589-.705,7.506.728l.287,1.929Z" transform="translate(-2517.947 -2224.372)" fill="url(#linear-gradient-32)"/>
        <path id="Path_20943" data-name="Path 20943" d="M2560.539,2203.18a2.306,2.306,0,0,1-1.111,0,1,1,0,0,1-.766-.972v-5.2h2.646v5.195A1.008,1.008,0,0,1,2560.539,2203.18Z" transform="translate(-2539.275 -2189.792)" fill="url(#linear-gradient-33)"/>
        <path id="Path_20944" data-name="Path 20944" d="M2733.888,2239.358l.155-1.66a1.277,1.277,0,0,1,.968-.745c1.606-.256,5.589-.705,7.506.728l.287,1.929Z" transform="translate(-2692.017 -2224.372)" fill="url(#linear-gradient-34)"/>
        <path id="Path_20945" data-name="Path 20945" d="M2760.233,2199.46a2.307,2.307,0,0,1-1.111,0,1,1,0,0,1-.766-.972v-5.746H2761v5.742A1.008,1.008,0,0,1,2760.233,2199.46Z" transform="translate(-2713.345 -2186.072)" fill="url(#linear-gradient-35)"/>
        <path id="Path_20946" data-name="Path 20946" d="M2547.229,2149.26l28.451-.942a1.372,1.372,0,0,0,1.31-1.126,11.59,11.59,0,0,0,.088-3.606,3.282,3.282,0,0,0-3.181-2.778c-5.308-.126-18.819-.122-26.266,2.823a2.6,2.6,0,0,0-1.571,1.8,6.3,6.3,0,0,0-.068,2.889A1.225,1.225,0,0,0,2547.229,2149.26Z" transform="translate(-2528.11 -2140.769)" fill="url(#linear-gradient-36)"/>
        <path id="Path_20947" data-name="Path 20947" d="M2551.731,2159.93a.125.125,0,0,1-.125-.113,6.68,6.68,0,0,1,.17-2.144,2.372,2.372,0,0,1,1.615-1.642,31.26,31.26,0,0,1,7.088-1.325.125.125,0,0,1,.007.25,30.992,30.992,0,0,0-7.025,1.315,2.12,2.12,0,0,0-1.444,1.467,6.537,6.537,0,0,0-.163,2.054.126.126,0,0,1-.112.137Z" transform="translate(-2533.105 -2152.918)" fill="#91b3fa"/>
        <path id="Path_20948" data-name="Path 20948" d="M2410.621,2251.5c9.192-.118,48.954-.535,60.5.858a2.351,2.351,0,0,1,2.021,1.821,77.647,77.647,0,0,1,1.893,17.358,2.059,2.059,0,0,1-1.686,1.963l-26.365,4.988h-9.365l-28.092-5.584a2.2,2.2,0,0,1-1.771-2.039c-.183-3.574-.468-11.961.5-17.36A2.431,2.431,0,0,1,2410.621,2251.5Z" transform="translate(-2407.574 -2237.156)" fill="url(#linear-gradient-37)"/>
        <path id="Path_20949" data-name="Path 20949" d="M2631.268,2411.143h-8.2a2.12,2.12,0,0,1-2.108-1.863l-.948-7.9a2.117,2.117,0,0,1,2.108-2.364h9.857a2.117,2.117,0,0,1,2.115,2.3l-.7,7.9A2.119,2.119,0,0,1,2631.268,2411.143Z" transform="translate(-2592.735 -2365.883)" fill="url(#linear-gradient-38)"/>
        <path id="Path_20950" data-name="Path 20950" d="M2637.891,2416.468h-6.96a1.8,1.8,0,0,1-1.789-1.58l-.8-6.7a1.8,1.8,0,0,1,1.789-2.006h8.362a1.8,1.8,0,0,1,1.794,1.951l-.6,6.7A1.8,1.8,0,0,1,2637.891,2416.468Z" transform="translate(-2599.999 -2372.127)" fill="#7d97f4"/>
      </g>
      <g id="Group_8965" data-name="Group 8965" transform="translate(159.026 107.25)">
        <path id="Path_20951" data-name="Path 20951" d="M2602.812,1613.059s8.281,37.355.78,58.357c9.2,4.264,7.5,3.46,7.5,3.46s18.191-53.151,12.318-67.336C2611.828,1606.311,2606.084,1609.422,2602.812,1613.059Z" transform="translate(-2587.288 -1570.755)" fill="url(#linear-gradient-39)"/>
        <path id="Path_20952" data-name="Path 20952" d="M2579.128,2100.226s-4.739,6.133-4.36,8.575.469,3.438.469,3.438,2.381-1.628,2.231-3.709c-.331,6.6,1.384,6.012,3.394,5.65s8.489-1.851,6.137-12.074C2581.661,2098.4,2580.165,2098.8,2579.128,2100.226Z" transform="translate(-2562.824 -1999.565)" fill="url(#linear-gradient-40)"/>
        <path id="Path_20953" data-name="Path 20953" d="M2481.828,1350.633l13.659-27.912s36.968,22.27,19,75.272c-4.9-3.415-7.423-2.524-13.51-.3C2499.5,1342.912,2481.828,1350.633,2481.828,1350.633Z" transform="translate(-2481.828 -1322.721)" fill="#fca700"/>
      </g>
    </g>
    <g id="Group_8968" data-name="Group 8968" transform="translate(525.164 505.853)">
      <path id="Path_20468" data-name="Path 20468" d="M1594.662,843.126H1576.4a1.935,1.935,0,1,1,0-3.859h18.266a1.935,1.935,0,1,1,0,3.859Z" transform="translate(-1546.462 -821.9)" fill="#f6597b"/>
      <path id="Path_20469" data-name="Path 20469" d="M1739.473,843.126h18.266a1.935,1.935,0,1,0,0-3.859h-18.266a1.935,1.935,0,1,0,0,3.859Z" transform="translate(-1681.682 -839.267)" fill="#67dae6"/>
      <path id="Path_20471" data-name="Path 20471" d="M1594.662,889.634H1576.4a2.007,2.007,0,0,1-2.076-1.93V876.341a2.007,2.007,0,0,1,2.076-1.93h18.266a2.007,2.007,0,0,1,2.076,1.93V887.7A2.007,2.007,0,0,1,1594.662,889.634Z" transform="translate(-1546.462 -874.411)" fill="#f6597b"/>
      <path id="Path_20472" data-name="Path 20472" d="M1757.739,874.411h-18.266a2.007,2.007,0,0,0-2.076,1.93V887.7a2.007,2.007,0,0,0,2.076,1.93h18.266a2.007,2.007,0,0,0,2.076-1.93V876.341A2.007,2.007,0,0,0,1757.739,874.411Z" transform="translate(-1681.682 -868.408)" fill="#67dae6"/>
      <path id="Path_20955" data-name="Path 20955" d="M.808-5.752l.228-.024.316-.032q.168-.016.34-.024T2-5.84a2.45,2.45,0,0,1,1.448.364,1.3,1.3,0,0,1,.5,1.132,1.286,1.286,0,0,1-.076.452,1.372,1.372,0,0,1-.2.368,1.229,1.229,0,0,1-.3.276,1.4,1.4,0,0,1-.356.168,1.784,1.784,0,0,1,.48.132,1.313,1.313,0,0,1,.412.28A1.323,1.323,0,0,1,4.2-2.22a1.722,1.722,0,0,1,.108.644,1.519,1.519,0,0,1-.172.744,1.49,1.49,0,0,1-.48.52A2.2,2.2,0,0,1,2.924,0a3.952,3.952,0,0,1-.916.1Q1.88.1,1.72.088T1.4.068Q1.232.056,1.076.036L.808,0ZM2.12-3.3a1.331,1.331,0,0,0,.948-.288,1,1,0,0,0,.3-.752.946.946,0,0,0-.316-.724,1.434,1.434,0,0,0-1-.292q-.208,0-.4.016t-.3.032V-3.3ZM1.36-.448q.112.016.3.028t.4.012a3.328,3.328,0,0,0,.612-.056A1.637,1.637,0,0,0,3.2-.656a1.069,1.069,0,0,0,.372-.36,1.038,1.038,0,0,0,.14-.56,1.2,1.2,0,0,0-.12-.564,1.027,1.027,0,0,0-.328-.372,1.393,1.393,0,0,0-.488-.208,2.688,2.688,0,0,0-.6-.064H1.36Zm4.08-5.3q.056-.008.136-.012t.144,0q.072,0,.144,0t.128.012V-2.28a3.691,3.691,0,0,0,.084.852,1.51,1.51,0,0,0,.256.572.975.975,0,0,0,.436.324,1.786,1.786,0,0,0,.632.1A1.287,1.287,0,0,0,8.468-.856a2.306,2.306,0,0,0,.34-1.424V-5.752q.056-.008.128-.012t.144,0q.064,0,.144,0t.136.012v3.544A2.682,2.682,0,0,1,8.888-.48,1.813,1.813,0,0,1,7.4.1,1.813,1.813,0,0,1,5.912-.48,2.682,2.682,0,0,1,5.44-2.208Zm6.7,3.616L10.3-5.752a1.218,1.218,0,0,1,.136-.012q.088,0,.168,0t.172,0q.1,0,.156.012l1.5,3.04,1.48-3.04q.064-.008.14-.012t.148,0q.08,0,.168,0a1.218,1.218,0,0,1,.136.012L12.7-2.136V0q-.056.008-.128.012t-.144,0q-.08,0-.156,0A1.149,1.149,0,0,1,12.144,0Z" transform="translate(59.678 17.147)" fill="#fff"/>
      <path id="Path_20956" data-name="Path 20956" d="M.592-.64Q.7-.608.824-.568A2.565,2.565,0,0,0,1.092-.5q.148.032.332.056a3.314,3.314,0,0,0,.424.024,2.1,2.1,0,0,0,.66-.092,1.329,1.329,0,0,0,.456-.248.979.979,0,0,0,.268-.368,1.188,1.188,0,0,0,.088-.46A1.255,1.255,0,0,0,3.26-2a.815.815,0,0,0-.208-.316,1.665,1.665,0,0,0-.408-.276q-.26-.132-.652-.284-.28-.1-.532-.224a1.857,1.857,0,0,1-.444-.292,1.264,1.264,0,0,1-.3-.412A1.418,1.418,0,0,1,.6-4.4a1.312,1.312,0,0,1,.468-1.048,2.046,2.046,0,0,1,1.364-.4q.176,0,.356.016t.336.04q.156.024.288.056t.212.056q-.016.12-.044.244a2.032,2.032,0,0,1-.068.236,3.473,3.473,0,0,0-.492-.116,3.484,3.484,0,0,0-.6-.052,1.363,1.363,0,0,0-.952.272.906.906,0,0,0-.288.688.768.768,0,0,0,.088.376.9.9,0,0,0,.244.28,1.957,1.957,0,0,0,.372.22q.216.1.464.2.336.136.628.28a2.1,2.1,0,0,1,.5.336,1.417,1.417,0,0,1,.328.452,1.491,1.491,0,0,1,.12.628A1.763,1.763,0,0,1,3.78-.9a1.481,1.481,0,0,1-.42.544A1.9,1.9,0,0,1,2.7-.02,3.1,3.1,0,0,1,1.816.1,3.77,3.77,0,0,1,1.032.028Q.72-.04.448-.128A1.836,1.836,0,0,1,.5-.388,2.12,2.12,0,0,1,.592-.64ZM5.136-5.752h3.08a1.12,1.12,0,0,1,.012.116q0,.068,0,.132t0,.132a1.149,1.149,0,0,1-.012.124H5.688V-3.3H7.72a1.119,1.119,0,0,1,.012.116q0,.068,0,.132t0,.132A1.149,1.149,0,0,1,7.72-2.8H5.688V-.5h2.6A1.12,1.12,0,0,1,8.3-.388q0,.068,0,.132t0,.132A1.149,1.149,0,0,1,8.288,0H5.136Zm4.32,0a1.149,1.149,0,0,1,.124-.012q.076,0,.156,0t.144,0q.072,0,.128.012V-.5h2.456a1.149,1.149,0,0,1,.012.124q0,.076,0,.132t0,.132A1.12,1.12,0,0,1,12.464,0H9.456Zm3.976,0a1.149,1.149,0,0,1,.124-.012q.076,0,.156,0t.144,0q.072,0,.128.012V-.5H16.44a1.149,1.149,0,0,1,.012.124q0,.076,0,.132t0,.132A1.119,1.119,0,0,1,16.44,0H13.432Z" transform="translate(30.678 10.147)" fill="#fff"/>
    </g>
  </g>
</svg>
